<svg width="36.000000" height="36.000000" viewBox="0 0 36 36" fill="none" xmlns="http://www.w3.org/2000/svg" xmlns:xlink="http://www.w3.org/1999/xlink">
	<desc>
			Created with Pixso.
	</desc>
	<defs>
		<clipPath id="clip701_698">
			<rect id="Facebook - Original" width="36.000000" height="36.000000" fill="white" fill-opacity="0"/>
		</clipPath>
	</defs>
	<rect id="Facebook - Original" width="36.000000" height="36.000000" fill="#272727"/>
	<g clip-path="url(#clip701_698)">
		<path id="Vector" d="M36 18C36 8.05884 27.9412 0 18 0C8.05884 0 0 8.05884 0 18C0 26.9842 6.58228 34.431 15.1875 35.7813L15.1875 23.2031L10.6172 23.2031L10.6172 18L15.1875 18L15.1875 14.0344C15.1875 9.52313 17.8748 7.03125 21.9864 7.03125C23.9551 7.03125 26.0156 7.38281 26.0156 7.38281L26.0156 11.8125L23.7459 11.8125C21.51 11.8125 20.8125 13.2001 20.8125 14.625L20.8125 18L25.8047 18L25.0067 23.2031L20.8125 23.2031L20.8125 35.7813C29.4177 34.431 36 26.9842 36 18Z" fill="#5B5959" fill-opacity="1.000000" fill-rule="nonzero"/>
		<path id="Vector" d="M25.0067 23.2031L25.8047 18L20.8125 18L20.8125 14.625C20.8125 13.2015 21.51 11.8125 23.7459 11.8125L26.0156 11.8125L26.0156 7.38281C26.0156 7.38281 23.9558 7.03125 21.9864 7.03125C17.8748 7.03125 15.1875 9.52313 15.1875 14.0344L15.1875 18L10.6172 18L10.6172 23.2031L15.1875 23.2031L15.1875 35.7813C17.0511 36.0729 18.9489 36.0729 20.8125 35.7813L20.8125 23.2031L25.0067 23.2031Z" fill="#FFFFFF" fill-opacity="1.000000" fill-rule="nonzero"/>
	</g>
</svg>
